<svg width="46" height="42" viewBox="0 0 46 42" fill="none" xmlns="http://www.w3.org/2000/svg">
<path opacity="0.5" d="M25.2311 15.0065C30.2983 15.0065 34.406 11.6472 34.406 7.50326C34.406 3.35932 30.2983 0 25.2311 0C20.1639 0 16.0562 3.35932 16.0562 7.50326C16.0562 11.6472 20.1639 15.0065 25.2311 15.0065Z" fill="#4A3AFF"/>
<path opacity="0.5" d="M9.17491 15.0065C12.9753 15.0065 16.0561 12.487 16.0561 9.37903C16.0561 6.27108 12.9753 3.75159 9.17491 3.75159C5.37452 3.75159 2.2937 6.27108 2.2937 9.37903C2.2937 12.487 5.37452 15.0065 9.17491 15.0065Z" fill="#4A3AFF"/>
<path d="M29.8186 41.2679H6.88121C3.08049 41.2679 0 38.7487 0 35.6405V20.634C0 17.5257 3.08049 15.0065 6.88121 15.0065H29.8186C33.6193 15.0065 36.6998 17.5257 36.6998 20.634V35.6405C36.6998 38.7487 33.6193 41.2679 29.8186 41.2679Z" fill="#4A3AFF"/>
<path opacity="0.5" d="M45.8746 30.013H36.6997V22.5097L42.4111 21.5775C44.1154 21.1123 45.8746 22.1496 45.8746 23.6183V30.013Z" fill="#4A3AFF"/>
<path opacity="0.5" d="M45.8746 26.2614H36.6997V33.7647L42.4111 34.697C44.1154 35.1622 45.8746 34.1248 45.8746 32.6561V26.2614Z" fill="#4A3AFF"/>
</svg>
