<svg width="26" height="25" viewBox="0 0 26 25" fill="none" xmlns="http://www.w3.org/2000/svg">
<path id="Vector" d="M25.9007 12.3926C25.9007 19.3018 20.7577 24.2188 13.1626 24.2188C5.88073 24.2188 0 18.8086 0 12.1094C0 5.41016 5.88073 0 13.1626 0C15.6601 0 17.8784 0.593615 19.7749 1.63406C21.0258 2.32035 21.0361 4.01183 19.9674 4.95716C19.0765 5.74521 17.7474 5.70121 16.6705 5.19617C11.8509 2.9359 5.00499 6.07659 5.00499 12.1094C5.00499 16.333 8.67248 19.7559 13.1626 19.7559C15.6584 19.7559 17.407 18.9676 18.5854 17.9504C20.1895 16.5656 18.6979 14.5361 16.5788 14.5361H15.2452C14.095 14.5361 13.1626 13.6038 13.1626 12.4536C13.1626 11.3035 14.095 10.3711 15.2452 10.3711H23.658C24.8408 10.3711 25.9007 11.2098 25.9007 12.3926Z" fill="black"/>
</svg>
